HIERARCHY
ROOT Hips
{
	OFFSET -3.958830 18.904000 13.208200
	CHANNELS 6 Xposition Yposition Zposition Zrotation Yrotation Xrotation 
	JOINT LHipJoint
	{
		OFFSET 0.000000 0.000000 0.000000
		CHANNELS 3 Zrotation Yrotation Xrotation
		JOINT LeftUpLeg
		{
			OFFSET 1.800000 -1.400000 0.085000
			CHANNELS 3 Zrotation Yrotation Xrotation
			JOINT LeftLeg
			{
				OFFSET 2.215000 -6.000000 0.000000
				CHANNELS 3 Zrotation Yrotation Xrotation
				JOINT LeftFoot
				{
					OFFSET 2.500000 -6.900000 0.000000
					CHANNELS 3 Zrotation Yrotation Xrotation
					JOINT LeftToeBase
					{
						OFFSET 0.200000 -0.500000 1.950000
						CHANNELS 3 Zrotation Yrotation Xrotation
						End Site
						{
							OFFSET 0.000000 0.000000 0.000000
						}
					}
				}
			}
		}
	}
	JOINT RHipJoint
	{
		OFFSET 0.000000 0.000000 0.000000
		CHANNELS 3 Zrotation Yrotation Xrotation
		JOINT RightUpLeg
		{
			OFFSET -1.800000 -1.400000 0.085000
			CHANNELS 3 Zrotation Yrotation Xrotation
			JOINT RightLeg
			{
				OFFSET -2.215000 -6.000000 0.000000
				CHANNELS 3 Zrotation Yrotation Xrotation
				JOINT RightFoot
				{
					OFFSET -2.500000 -6.900000 0.000000
					CHANNELS 3 Zrotation Yrotation Xrotation
					JOINT RightToeBase
					{
						OFFSET -0.200000 -0.500000 1.950000
						CHANNELS 3 Zrotation Yrotation Xrotation
						End Site
						{
							OFFSET 0.000000 0.000000 0.000000
						}
					}
				}
			}
		}
	}
	JOINT LowerBack
	{
		OFFSET 0.000000 0.000000 0.000000
		CHANNELS 3 Zrotation Yrotation Xrotation
		JOINT Spine
		{
			OFFSET -0.087000 1.940000 -0.288900
			CHANNELS 3 Zrotation Yrotation Xrotation
			JOINT Spine1
			{
				OFFSET 0.000000 1.950000 0.060000
				CHANNELS 3 Zrotation Yrotation Xrotation
				JOINT Neck
				{
					OFFSET 0.000000 0.000000 0.000000
					CHANNELS 3 Zrotation Yrotation Xrotation
					JOINT Neck1
					{
						OFFSET 0.000000 1.600000 0.340000
						CHANNELS 3 Zrotation Yrotation Xrotation
						JOINT Head
						{
							OFFSET 0.000000 1.667000 -0.240000
							CHANNELS 3 Zrotation Yrotation Xrotation
							End Site
							{
								OFFSET 0.000000 0.000000 0.000000
							}
						}
					}
				}
				JOINT LeftShoulder
				{
					OFFSET 0.000000 0.000000 0.000000
					CHANNELS 3 Zrotation Yrotation Xrotation
					JOINT LeftArm
					{
						OFFSET 2.700000 1.550000 -0.730000
						CHANNELS 3 Zrotation Yrotation Xrotation
						JOINT LeftForeArm
						{
							OFFSET 5.450000 0.000000 0.000000
							CHANNELS 3 Zrotation Yrotation Xrotation
							JOINT LeftHand
							{
								OFFSET 3.450000 0.000000 0.000000
								CHANNELS 3 Zrotation Yrotation Xrotation
								JOINT LeftHandIndex1
								{
									OFFSET 0.750000 0.000000 0.000000
									CHANNELS 3 Zrotation Yrotation Xrotation
									End Site
									{
										OFFSET 0.000000 0.000000 0.000000
									}
								}
							}
						}
					}
				}
				JOINT RightShoulder
				{
					OFFSET 0.000000 0.000000 0.000000
					CHANNELS 3 Zrotation Yrotation Xrotation
					JOINT RightArm
					{
						OFFSET -2.700000 1.550000 -0.730000
						CHANNELS 3 Zrotation Yrotation Xrotation
						JOINT RightForeArm
						{
							OFFSET -5.450000 0.000000 0.000000
							CHANNELS 3 Zrotation Yrotation Xrotation
							JOINT RightHand
							{
								OFFSET -3.450000 0.000000 0.000000
								CHANNELS 3 Zrotation Yrotation Xrotation
								JOINT RightHandIndex1
								{
									OFFSET -0.750000 0.000000 0.000000
									CHANNELS 3 Zrotation Yrotation Xrotation
									End Site
									{
										OFFSET 0.000000 0.000000 0.000000
									}
								}
							}
						}
					}
				}
			}
		}
	}
}
MOTION
Frames: 12
Frame Time: 0.016667
-2.106370 18.049170 1.875180 18.733076 -27.236576 -19.666479 -16.155614 10.512947 8.365701 26.430331 -14.943531 -57.001475 -41.821071 47.326208 68.014353 3.111433 18.130826 -1.041863 0.414310 0.390290 0.339220 17.953298 -8.794995 0.437653 -15.695747 0.203301 -23.488050 -6.528672 -5.546558 39.773679 -0.702915 -5.127642 2.380400 0.097630 -0.117590 0.243790 -1.661189 -4.024900 -9.776676 -3.869839 2.585027 51.381892 3.603640 3.420878 9.087829 3.517842 3.148822 -14.852957 2.716185 -1.884798 46.888981 -4.911350 3.657530 -23.320250 -17.667897 -28.483161 7.287149 -19.741741 -8.388225 -15.683015 36.434580 -55.475147 -20.875598 -3.208897 2.702407 0.704170 -0.165600 0.439610 0.102580 10.568527 31.402511 9.958708 18.412879 8.269113 -20.204744 -32.468896 52.723835 -16.075832 1.723066 -1.069794 -0.026700 0.196740 -0.044220 -0.141310 
-2.098300 18.047080 1.844170 19.615087 -28.454370 -19.943306 -16.172057 10.347835 8.496087 28.011940 -14.063347 -58.611794 -45.330299 47.409909 64.280014 3.019087 17.624633 -0.931683 0.417320 0.388280 0.359760 17.977971 -8.696158 0.469927 -16.832721 0.330588 -24.145643 -5.330759 -6.003459 39.512249 -0.697675 -5.114147 2.370172 0.086730 -0.148930 0.242290 -1.687371 -3.939764 -9.869561 -4.290754 3.030733 52.399839 3.292725 3.717753 8.365430 3.459051 3.245520 -15.110969 2.647120 -2.014256 47.956018 -5.501750 3.692130 -23.710070 -17.469090 -29.326860 7.224452 -17.750750 -9.631302 -15.017701 32.714718 -53.554957 -17.882687 -3.205747 2.761750 0.718040 -0.185740 0.459370 0.091950 10.514966 32.186581 9.873111 18.133753 9.300661 -20.427188 -33.499988 53.087077 -16.620438 1.730287 -1.041667 -0.017830 0.186820 -0.051690 -0.149860 
-2.099400 18.052810 1.855560 19.577947 -29.832039 -19.288118 -16.138990 10.157160 8.557341 29.115908 -12.890405 -58.567481 -45.867240 48.442321 64.091577 3.032632 17.567989 -0.911843 0.417450 0.384650 0.370540 18.021160 -8.658163 0.608756 -17.112694 0.655395 -25.259380 -4.058751 -6.523343 39.641703 -0.691285 -5.165697 2.347245 0.081680 -0.165510 0.228380 -1.831358 -3.563065 -9.964528 -3.143228 2.505787 51.147176 2.179241 3.879907 8.494953 3.474285 3.349549 -15.608019 2.720876 -2.230668 50.302762 -5.872430 3.478970 -21.949710 -18.361618 -29.690397 7.536256 -19.012190 -9.552750 -14.649791 28.732930 -52.138810 -15.529002 -3.185200 2.808938 0.708240 -0.191550 0.457970 0.088140 11.381675 32.368072 10.296993 21.924626 9.321916 -21.030322 -34.360501 53.896825 -17.893398 1.731590 -1.030331 -0.012770 0.177070 -0.064150 -0.150930 
-2.129360 18.043990 1.923530 19.109916 -30.630789 -17.733844 -16.100556 9.942628 8.545696 29.579997 -11.962663 -57.590111 -43.212870 50.286844 67.562772 3.142726 18.013645 -1.018024 0.423960 0.387550 0.380420 18.054182 -8.629002 0.821415 -17.656103 0.909773 -26.843006 -2.260325 -7.471900 40.123191 -0.688350 -5.372121 2.271259 0.085260 -0.180900 0.228940 -2.011491 -3.028259 -10.049189 -1.310862 1.660571 47.070413 0.832950 3.816313 9.217780 3.736579 3.981594 -15.825385 4.232288 -3.072936 52.927273 -7.139940 3.452270 -18.611630 -19.862333 -28.750457 7.911470 -23.340445 -8.407890 -14.124228 24.307650 -50.126488 -13.226610 -3.190748 2.869311 0.669700 -0.168330 0.438810 0.081450 12.301398 30.893132 10.808977 29.232821 8.585110 -20.758693 -32.126550 52.671903 -17.295368 1.738960 -1.087884 0.004460 0.141110 -0.072240 -0.156200 
-2.181810 18.024550 2.029730 17.912154 -30.569906 -16.271007 -16.003592 9.862705 8.416420 28.798056 -12.336464 -55.117335 -35.242441 51.011226 76.335687 3.345546 19.182717 -1.279142 0.388430 0.325840 0.373100 18.097861 -8.750501 0.989104 -17.777892 0.831584 -27.318214 -0.645891 -8.479799 40.539813 -0.701756 -5.567690 2.201917 0.062330 -0.171590 0.207570 -2.273326 -2.510592 -10.063076 1.252598 0.175745 43.312092 -0.525393 3.384964 8.299856 4.005779 3.953705 -15.206510 4.543353 -3.168957 55.724466 -6.929880 3.401080 -16.897740 -20.900439 -25.576463 7.788881 -30.681537 -6.269675 -14.026428 18.552407 -49.740466 -11.198199 -3.195541 2.838775 0.694920 -0.167990 0.418230 0.057390 12.874222 27.286943 10.636680 38.326162 6.698109 -20.279595 -26.160273 51.388193 -14.630353 1.769825 -1.073083 -0.030090 0.158360 -0.040430 -0.179680 
-2.247030 17.981460 2.166760 17.056464 -30.511149 -15.099592 -15.866460 9.917764 8.117359 26.589488 -13.035407 -51.243336 -25.328765 50.486020 87.221257 3.680409 20.520124 -1.520673 0.332810 0.248150 0.322620 18.154487 -8.928571 1.199443 -17.573720 0.771416 -28.417480 -0.412406 -9.204824 42.507775 -0.763141 -5.931838 2.086239 -0.004010 -0.149890 0.207860 -2.582631 -2.063576 -10.040528 3.882185 -1.107724 39.847351 -1.960099 2.951240 5.455408 4.176866 3.278045 -14.381583 3.369006 -2.508712 58.186960 -5.769790 3.164890 -14.368350 -19.708944 -19.768338 6.863026 -39.257178 -3.485178 -13.516925 10.406923 -45.810484 -7.308147 -3.231894 2.847005 0.707440 -0.175580 0.411180 0.059350 11.426353 21.349175 10.046540 49.095028 2.823652 -20.441557 -16.935137 49.722428 -10.304766 1.882345 -1.090739 -0.030690 0.145310 -0.017850 -0.164510 
-2.292560 17.957570 2.333240 15.526290 -30.687549 -12.984292 -15.708580 10.229995 7.732989 23.935523 -13.449341 -47.204483 -16.173163 47.360327 96.098502 3.908178 21.145494 -1.587552 0.216680 0.102570 0.205370 18.214714 -9.108210 1.421889 -16.298287 0.807207 -29.726558 -1.195342 -9.316320 43.950462 -0.757787 -6.069272 2.095746 -0.122830 -0.121250 0.156370 -2.897138 -2.006761 -10.005753 7.652016 -3.323211 36.788204 -3.530266 1.887444 -0.251809 4.410641 0.626078 -13.897151 -2.688559 0.110685 60.677554 -4.472990 1.987340 -9.395730 -16.813708 -11.018509 5.237101 -49.667147 1.143620 -14.094371 5.555954 -40.213513 -4.787639 -3.259448 2.809596 0.704890 -0.199640 0.367960 0.065560 8.095138 14.049354 9.376500 58.500514 -2.742677 -21.247385 -7.816068 45.831837 -5.504487 2.053892 -1.102151 -0.042970 0.126520 0.012430 -0.131380 
-2.341420 17.920220 2.487480 13.416519 -31.566583 -9.477090 -15.604530 10.696872 7.252383 21.311540 -12.857379 -43.701252 -8.442547 42.536029 101.798227 4.000283 20.943447 -1.472632 0.074080 -0.106550 0.104010 18.236562 -9.147772 1.755509 -13.892051 1.542746 -31.836147 -1.926496 -9.099108 44.785240 -0.729064 -6.051948 2.154855 -0.304060 -0.085600 0.159000 -3.079624 -2.253704 -9.946591 11.494038 -4.729845 34.245281 -5.165729 1.690412 -8.539058 4.992078 -0.622701 -12.663688 -5.381200 1.885835 60.149030 -3.914590 2.336880 -3.448620 -12.783391 1.980176 2.439162 -56.388492 8.088126 -15.573245 -2.203971 -37.259253 -1.640182 -3.313121 2.828240 0.689300 -0.200980 0.326940 0.069130 2.733494 2.044629 8.344445 65.045246 -10.531979 -23.365692 3.866964 45.660065 -0.400895 2.192979 -1.170765 -0.031380 0.041150 0.037270 -0.100610 
-2.432470 17.900210 2.620780 11.678771 -31.616295 -7.640732 -15.531416 11.460482 6.610603 18.273265 -12.759075 -39.512371 0.840946 34.197475 107.578186 3.781134 19.943941 -1.246001 -0.085460 -0.330230 0.026890 18.202612 -9.409510 1.867377 -10.765748 1.696958 -31.468679 -4.110394 -7.947174 44.516865 -0.642723 -5.808669 2.285698 -0.435920 -0.023950 0.138970 -2.995193 -2.702437 -9.731299 13.000168 -4.836574 31.714432 -4.492215 2.055147 -12.190500 5.355747 -0.431694 -11.676041 -4.881400 1.387796 58.261125 -4.947230 2.833530 1.502470 -9.403284 11.407344 0.732113 -59.181659 15.598585 -18.759433 -7.800618 -36.359221 0.141805 -3.381518 2.750500 0.684830 -0.160610 0.256680 0.035560 -1.385867 -7.398208 8.087733 65.172544 -18.990617 -25.394481 13.695049 43.255392 3.294494 2.225952 -1.144236 -0.089420 0.023370 0.104210 -0.113380 
-2.523380 17.881040 2.753430 9.836297 -31.131427 -7.655322 -15.396548 12.289552 5.907199 15.224590 -12.538578 -33.553758 7.512073 25.169466 109.101223 3.446593 18.387980 -0.923318 -0.107280 -0.371270 0.032510 18.197321 -9.863407 1.860348 -7.743754 1.367051 -28.667967 -6.339644 -6.704109 43.860963 -0.627551 -5.589693 2.402953 -0.472910 -0.038780 0.135040 -2.995619 -2.994527 -9.380835 14.903502 -5.374383 29.815161 -4.084757 1.828898 -12.146140 5.737366 -0.243110 -11.379035 -4.298835 0.933510 57.115870 -6.786260 3.840770 3.182620 -5.577374 16.936718 0.403736 -60.268903 22.399949 -22.490517 -13.987569 -36.121648 1.682480 -3.342670 2.744764 0.690690 -0.158980 0.259080 0.040710 -6.084602 -13.072013 8.363530 64.796414 -24.132411 -26.930811 18.362202 38.348669 3.994125 2.248154 -1.102099 -0.093630 -0.003450 0.085600 -0.119980 
-2.572210 17.843800 2.836610 9.331839 -30.451424 -7.788906 -15.252471 12.680398 5.420677 11.974450 -12.643450 -29.430899 11.229150 18.628131 108.391772 3.270867 17.428883 -0.694519 -0.169220 -0.458840 -0.019530 18.263439 -10.219564 1.929174 -5.763907 1.042917 -27.783693 -9.085991 -5.484000 44.200451 -0.616092 -5.639532 2.407429 -0.531020 -0.000020 0.149190 -3.237240 -2.849952 -9.096807 16.435499 -6.291522 27.341497 -5.149193 0.320944 -10.333870 5.776972 -0.487690 -11.469337 -4.456852 1.460726 54.323554 -6.974070 4.674820 6.611150 -1.558463 19.568855 1.126486 -61.077721 27.226113 -25.721844 -18.938640 -36.582216 2.865872 -3.319800 2.826840 0.649940 -0.121170 0.210870 0.036700 -10.408720 -16.250788 8.907423 66.571184 -27.224496 -29.422147 21.286225 36.606563 4.285835 2.215525 -1.130897 -0.091150 -0.052280 0.110620 -0.107580 
-2.585740 17.846080 2.888250 9.239595 -30.278298 -8.314220 -15.163218 12.915273 5.158474 8.915864 -12.729598 -25.918875 12.046706 15.719687 106.527557 3.181813 16.958630 -0.593630 -0.191360 -0.491710 -0.025510 18.298753 -10.480358 1.935367 -4.388959 0.628967 -26.651973 -11.514782 -4.279684 43.388835 -0.609892 -5.514214 2.466433 -0.563530 -0.005540 0.160080 -3.363210 -2.750295 -8.911355 17.398607 -6.840091 26.143295 -6.476629 -0.602681 -9.317594 6.248032 -0.317940 -11.672327 -3.827950 1.732895 54.124007 -7.333670 5.625800 7.484050 0.610267 21.101998 1.457096 -62.010188 29.398831 -27.782111 -21.125685 -39.836039 4.066488 -3.263461 2.900395 0.651020 -0.117020 0.212520 0.022100 -13.639795 -18.307155 9.603563 68.777211 -29.047171 -31.603783 22.179647 37.172901 4.705088 2.149815 -1.146698 -0.080160 -0.073000 0.126570 -0.113020 
